<svg xmlns="http://www.w3.org/2000/svg" width="120" height="320" viewBox="0 0 120 320">
  <!-- Top wire -->
  <rect x="55" y="0" width="10" height="40" fill="#777" rx="5" ry="5"/>
  <!-- Resistor body -->
  <path d="M60,40 C40,50 30,70 30,100 C30,130 35,160 30,190 C30,220 40,250 60,260 C80,250 90,220 90,190 C85,160 90,130 90,100 C90,70 80,50 60,40 Z" fill="#d2b48c" stroke="#a08362" stroke-width="2"/>
  <!-- Color bands -->
  <rect x="31" y="80" width="58" height="10" fill="saddlebrown"/>
  <rect x="30" y="95" width="60" height="10" fill="black"/>
  <rect x="30" y="120" width="60" height="10" fill="red"/>
  <rect x="31" y="145" width="59" height="10" fill="gold"/>
  <!-- Bottom wire -->
  <rect x="55" y="260" width="10" height="40" fill="#777" rx="5" ry="5"/>
</svg>
